<svg width="184" height="176" viewBox="0 0 184 176" fill="none" xmlns="http://www.w3.org/2000/svg">
<path fill-rule="evenodd" clip-rule="evenodd" d="M35 147.601C35 140.145 41.0442 134.101 48.5 134.101H134.603C142.058 134.101 148.103 140.145 148.103 147.601V162.5C148.103 169.956 142.058 176 134.603 176H48.5C41.0442 176 35 169.956 35 162.5V147.601Z" fill="white"/>
<path opacity="0.3" fill-rule="evenodd" clip-rule="evenodd" d="M74.3633 144.97C74.3633 143.757 75.3465 142.774 76.5594 142.774H135.517C136.73 142.774 137.713 143.757 137.713 144.97C137.713 146.183 136.73 147.166 135.517 147.166H76.5594C75.3465 147.166 74.3633 146.183 74.3633 144.97Z" fill="#1B3554"/>
<path opacity="0.3" fill-rule="evenodd" clip-rule="evenodd" d="M74.3633 152.976C74.3633 151.764 75.3465 150.78 76.5594 150.78H118.824C120.037 150.78 121.02 151.764 121.02 152.976C121.02 154.189 120.037 155.173 118.824 155.173H76.5594C75.3465 155.173 74.3633 154.189 74.3633 152.976Z" fill="#1B3554"/>
<path opacity="0.15" fill-rule="evenodd" clip-rule="evenodd" d="M74.3633 164.986C74.3633 163.773 75.3465 162.79 76.5594 162.79H90.2832C91.4961 162.79 92.4793 163.773 92.4793 164.986C92.4793 166.199 91.4961 167.182 90.2832 167.182H76.5594C75.3465 167.182 74.3633 166.199 74.3633 164.986Z" fill="#1B3554"/>
<ellipse cx="55.2899" cy="149.687" rx="10.2821" ry="10.2486" fill="#BAC2CB"/>
<path d="M53.6412 153.489C53.8369 153.685 54.0926 153.783 54.3488 153.783C54.605 153.783 54.8607 153.685 55.0564 153.489L60.0604 148.485C60.4512 148.095 60.4512 147.461 60.0604 147.07C59.6696 146.679 59.0361 146.679 58.6453 147.07L54.3488 151.366L52.054 149.072C51.6631 148.681 51.0296 148.681 50.6388 149.072C50.248 149.463 50.248 150.096 50.6388 150.487L53.6412 153.489Z" fill="white"/>
<path fill-rule="evenodd" clip-rule="evenodd" d="M35 98.897C35 91.4411 41.0442 85.397 48.5 85.397H134.603C142.058 85.397 148.103 91.4411 148.103 98.897V113.796C148.103 121.252 142.058 127.296 134.603 127.296H48.5C41.0442 127.296 35 121.252 35 113.796V98.897Z" fill="white"/>
<path opacity="0.3" fill-rule="evenodd" clip-rule="evenodd" d="M74.3633 96.2664C74.3633 95.0536 75.3465 94.0703 76.5594 94.0703H135.517C136.73 94.0703 137.713 95.0536 137.713 96.2664C137.713 97.4793 136.73 98.4626 135.517 98.4626H76.5594C75.3465 98.4626 74.3633 97.4793 74.3633 96.2664Z" fill="#1B3554"/>
<path opacity="0.3" fill-rule="evenodd" clip-rule="evenodd" d="M74.3633 104.273C74.3633 103.06 75.3465 102.077 76.5594 102.077H118.824C120.037 102.077 121.02 103.06 121.02 104.273C121.02 105.486 120.037 106.469 118.824 106.469H76.5594C75.3465 106.469 74.3633 105.486 74.3633 104.273Z" fill="#1B3554"/>
<path opacity="0.15" fill-rule="evenodd" clip-rule="evenodd" d="M74.3633 116.282C74.3633 115.069 75.3465 114.086 76.5594 114.086H90.2832C91.4961 114.086 92.4793 115.069 92.4793 116.282C92.4793 117.495 91.4961 118.478 90.2832 118.478H76.5594C75.3465 118.478 74.3633 117.495 74.3633 116.282Z" fill="#1B3554"/>
<ellipse cx="55.2899" cy="100.983" rx="10.2821" ry="10.2486" fill="#BAC2CB"/>
<path d="M53.6412 104.786C53.8369 104.981 54.0926 105.079 54.3488 105.079C54.605 105.079 54.8607 104.981 55.0564 104.786L60.0604 99.7817C60.4512 99.3909 60.4512 98.7574 60.0604 98.3666C59.6696 97.9758 59.0361 97.9758 58.6453 98.3666L54.3488 102.663L52.054 100.368C51.6631 99.9774 51.0296 99.9774 50.6388 100.368C50.248 100.759 50.248 101.393 50.6388 101.783L53.6412 104.786Z" fill="white"/>
<g filter="url(#filter0_d_712_9337)">
<path fill-rule="evenodd" clip-rule="evenodd" d="M44.6742 16.0648L139.096 29.4667C144.07 30.2279 148.103 33.7042 148.103 37.2258V60.7497C148.103 64.2713 144.07 67.7426 139.096 68.4975L45.3414 78.4497C40.367 79.085 35 74.9098 35 68.3064V26.1979C35 19.5945 39.6998 15.4238 44.6742 16.0648Z" fill="white"/>
</g>
<path opacity="0.3" fill-rule="evenodd" clip-rule="evenodd" d="M76.5594 35.2692L135.517 39.3686C136.73 39.4572 137.713 40.2861 137.713 41.2198C137.713 42.1536 136.73 42.8641 135.517 42.807L76.5594 40.1613C75.3465 40.1096 74.3633 38.9611 74.3633 37.596C74.3633 36.2309 75.3465 35.1891 76.5594 35.2692Z" fill="#1B3554"/>
<path opacity="0.3" fill-rule="evenodd" clip-rule="evenodd" d="M76.5594 44.1866L118.824 45.2113C120.037 45.2418 121.02 46.1192 121.02 47.1711C121.02 48.223 120.037 49.0757 118.824 49.0758L76.5594 49.0787C75.3465 49.0787 74.3633 47.9721 74.3633 46.6071C74.3633 45.242 75.3465 44.1582 76.5594 44.1866Z" fill="#1B3554"/>
<path opacity="0.15" fill-rule="evenodd" clip-rule="evenodd" d="M76.5594 57.5627L90.2832 56.9973C91.4961 56.9466 92.4793 57.9159 92.4793 59.1624C92.4793 60.4088 91.4961 61.484 90.2832 61.5638L76.5594 62.4548C75.3465 62.5325 74.3633 61.4887 74.3633 60.1236C74.3633 58.7585 75.3465 57.612 76.5594 57.5627Z" fill="#1B3554"/>
<path fill-rule="evenodd" clip-rule="evenodd" d="M56.7295 54.9217C63.2032 54.7854 68.4511 49.2846 68.4511 42.6371C68.4511 35.9895 63.2032 30.2314 56.7295 29.781C50.2558 29.3361 45.0078 34.8411 45.0078 42.0719C45.0078 49.3027 50.2558 55.0564 56.7295 54.9217Z" fill="#7DFBA5"/>
<path d="M54.8487 47.0018C55.0718 47.2448 55.3633 47.367 55.6554 47.3688C55.9475 47.3705 56.239 47.2524 56.462 47.0137L62.1667 41.0386C62.6122 40.5826 62.6122 39.8221 62.1667 39.3368C61.7211 38.8501 60.9989 38.8229 60.5534 39.2789L55.6554 44.3935L53.0392 41.4987C52.5937 41.0004 51.8715 40.98 51.4259 41.4558C50.9804 41.9332 50.9804 42.7261 51.4259 43.2244L54.8487 47.0018Z" fill="white"/>
<defs>
<filter id="filter0_d_712_9337" x="0" y="0" width="183.104" height="132.513" filterUnits="userSpaceOnUse" color-interpolation-filters="sRGB">
<feFlood flood-opacity="0" result="BackgroundImageFix"/>
<feColorMatrix in="SourceAlpha" type="matrix" values="0 0 0 0 0 0 0 0 0 0 0 0 0 0 0 0 0 0 127 0" result="hardAlpha"/>
<feOffset dy="19"/>
<feGaussianBlur stdDeviation="17.5"/>
<feColorMatrix type="matrix" values="0 0 0 0 0.226735 0 0 0 0 0.437054 0 0 0 0 0.687819 0 0 0 0.189057 0"/>
<feBlend mode="normal" in2="BackgroundImageFix" result="effect1_dropShadow_712_9337"/>
<feBlend mode="normal" in="SourceGraphic" in2="effect1_dropShadow_712_9337" result="shape"/>
</filter>
</defs>
</svg>
